<?xml version="1.0" encoding="UTF-8" standalone="no"?>
<!DOCTYPE svg PUBLIC "-//W3C//DTD SVG 1.1//EN" "http://www.w3.org/Graphics/SVG/1.1/DTD/svg11.dtd">
<svg width="100%" height="100%" viewBox="0 0 173 173" version="1.1" xmlns="http://www.w3.org/2000/svg" xmlns:xlink="http://www.w3.org/1999/xlink" xml:space="preserve" xmlns:serif="http://www.serif.com/" style="fill-rule:evenodd;clip-rule:evenodd;stroke-linejoin:round;stroke-miterlimit:1.41421;">
    <g id="Plan-de-travail2" serif:id="Plan de travail2" transform="matrix(0.277244,0,0,0.959481,-132.719,433.096)">
        <rect x="478.708" y="-451.386" width="621.213" height="179.518" style="fill:none;"/>
        <g transform="matrix(8.29838,0,0,2.39783,-4671.53,-750.714)">
            <g transform="matrix(1.49645,0,0,1.49645,-49.3095,-404.697)">
                <path d="M454.228,394.585C454.228,399.777 457.886,403.553 463.078,403.553C468.388,403.553 471.928,399.777 471.928,394.585C471.928,389.511 468.388,385.735 463.078,385.735C457.886,385.735 454.228,389.511 454.228,394.585Z" style="fill:rgb(231,76,60);fill-rule:nonzero;"/>
            </g>
            <g transform="matrix(1.145,0,0,1.145,122.218,-296.189)">
                <path d="M454.228,394.585C454.228,399.777 457.886,403.553 463.078,403.553C468.388,403.553 471.928,399.777 471.928,394.585C471.928,389.511 468.388,385.735 463.078,385.735C457.886,385.735 454.228,389.511 454.228,394.585Z" style="fill:rgb(231,76,60);fill-rule:nonzero;"/>
            </g>
            <g transform="matrix(0.950673,0,0,0.950673,237.055,-226.133)">
                <path d="M454.228,394.585C454.228,399.777 457.886,403.553 463.078,403.553C468.388,403.553 471.928,399.777 471.928,394.585C471.928,389.511 468.388,385.735 463.078,385.735C457.886,385.735 454.228,389.511 454.228,394.585Z" style="fill:rgb(231,76,60);fill-rule:nonzero;"/>
            </g>
            <g transform="matrix(0.63632,0,0,0.63632,383.366,-120.119)">
                <path d="M454.228,394.585C454.228,399.777 457.886,403.553 463.078,403.553C468.388,403.553 471.928,399.777 471.928,394.585C471.928,389.511 468.388,385.735 463.078,385.735C457.886,385.735 454.228,389.511 454.228,394.585Z" style="fill:rgb(231,76,60);fill-rule:nonzero;"/>
            </g>
            <g transform="matrix(0.921593,0,0,0.921593,240.723,-191.5)">
                <path d="M454.228,394.585C454.228,399.777 457.886,403.553 463.078,403.553C468.388,403.553 471.928,399.777 471.928,394.585C471.928,389.511 468.388,385.735 463.078,385.735C457.886,385.735 454.228,389.511 454.228,394.585Z" style="fill:rgb(231,76,60);fill-rule:nonzero;"/>
            </g>
        </g>
    </g>
</svg>
