<?xml version="1.0" encoding="UTF-8" standalone="no"?>
<!DOCTYPE svg PUBLIC "-//W3C//DTD SVG 1.1//EN" "http://www.w3.org/Graphics/SVG/1.1/DTD/svg11.dtd">
<svg width="100%" height="100%" viewBox="0 0 622 180" version="1.1" xmlns="http://www.w3.org/2000/svg" xmlns:xlink="http://www.w3.org/1999/xlink" xml:space="preserve" xmlns:serif="http://www.serif.com/" style="fill-rule:evenodd;clip-rule:evenodd;stroke-linejoin:round;stroke-miterlimit:1.41421;">
    <g id="Plan-de-travail2" serif:id="Plan de travail2" transform="matrix(1,0,0,1,-478.708,451.386)">
        <rect x="478.708" y="-451.386" width="621.213" height="179.518" style="fill:none;"/>
        <clipPath id="_clip1">
            <rect x="478.708" y="-451.386" width="621.213" height="179.518"/>
        </clipPath>
        <g clip-path="url(#_clip1)">
            <g transform="matrix(1,0,0,1,373.784,-576.104)">
                <g transform="matrix(1.49645,0,0,1.49645,-49.2982,-404.98)">
                    <path d="M131.616,410.279C115.922,410.279 103.532,422.551 103.532,438.009C103.532,453.467 115.922,465.621 131.616,465.621C147.192,465.621 159.7,453.467 159.7,438.009C159.7,422.551 147.192,410.279 131.616,410.279ZM131.616,452.523C124.3,452.523 118.636,446.741 118.636,438.009C118.636,429.277 124.3,423.495 131.616,423.495C138.932,423.495 144.596,429.277 144.596,438.009C144.596,446.741 138.932,452.523 131.616,452.523Z" style="fill:white;fill-rule:nonzero;"/>
                </g>
                <g transform="matrix(1.49645,0,0,1.49645,50.2497,-404.98)">
                    <path d="M131.616,410.279C115.922,410.279 103.532,422.551 103.532,438.009C103.532,453.467 115.922,465.621 131.616,465.621C147.192,465.621 159.7,453.467 159.7,438.009C159.7,422.551 147.192,410.279 131.616,410.279ZM131.616,452.523C124.3,452.523 118.636,446.741 118.636,438.009C118.636,429.277 124.3,423.495 131.616,423.495C138.932,423.495 144.596,429.277 144.596,438.009C144.596,446.741 138.932,452.523 131.616,452.523Z" style="fill:white;fill-rule:nonzero;"/>
                </g>
                <g transform="matrix(1.49645,0,0,1.49645,-49.2982,-404.98)">
                    <path d="M261.416,465.621C276.284,465.621 285.016,457.479 287.14,447.449L273.098,447.449C271.8,451.343 267.906,453.585 262.242,453.585C255.634,453.585 250.678,449.455 249.144,442.729L287.966,442.729C288.202,441.313 288.32,439.425 288.32,437.183C288.32,422.315 276.52,410.279 261.298,410.279C245.958,410.279 234.158,422.669 234.158,438.009C234.158,453.585 245.958,465.621 261.416,465.621ZM261.888,422.433C267.552,422.433 272.508,426.327 273.688,433.053L249.144,433.053C250.678,426.681 255.28,422.433 261.888,422.433Z" style="fill:white;fill-rule:nonzero;"/>
                </g>
                <g transform="matrix(1.49645,0,0,1.49645,-49.2982,-404.98)">
                    <path d="M329.738,410.279C322.068,410.279 316.168,413.583 312.982,417.949L312.982,411.695L298.94,411.695L298.94,464.323L313.572,464.323L313.572,436.357C313.572,428.687 318.174,423.613 325.136,423.613C331.98,423.613 335.756,428.333 335.756,435.767L335.756,464.323L350.388,464.323L350.388,431.991C350.388,419.247 342.482,410.279 329.738,410.279Z" style="fill:white;fill-rule:nonzero;"/>
                </g>
                <g transform="matrix(1.49645,0,0,1.49645,-49.2982,-404.98)">
                    <path d="M386.496,438.009C386.496,453.467 397.116,465.621 411.748,465.621C418.592,465.621 424.02,462.907 427.914,458.423L427.914,464.323L442.074,464.323L442.074,411.695L427.914,411.695L427.914,417.595C424.02,412.993 418.474,410.279 411.63,410.279C397.116,410.279 386.496,422.433 386.496,438.009ZM401.6,438.009C401.6,429.159 407.146,423.259 414.344,423.259C421.896,423.259 427.56,429.159 427.56,438.009C427.56,446.859 421.896,452.759 414.344,452.759C407.146,452.759 401.6,446.859 401.6,438.009Z" style="fill:white;fill-rule:nonzero;"/>
                </g>
                <g transform="matrix(1.49645,0,0,1.49645,-49.2982,-404.98)">
                    <rect x="455.762" y="411.695" width="14.632" height="52.628" style="fill:white;fill-rule:nonzero;"/>
                </g>
                <g transform="matrix(1.54478,0,0,1.01739,-498.82,-167.546)">
                    <rect x="455.762" y="411.695" width="14.632" height="52.628" style="fill:white;fill-rule:nonzero;"/>
                </g>
                <g transform="matrix(1.49645,0,0,1.49645,-49.2982,-404.98)">
                    <path d="M518.656,411.577C517.594,411.341 516.414,411.223 514.644,411.223C506.856,411.223 501.192,414.763 498.242,419.837L498.242,411.695L484.2,411.695L484.2,464.323L498.832,464.323L498.832,441.195C498.832,431.637 504.142,425.029 513.464,425.029C514.88,425.029 517.594,425.147 518.656,425.265L518.656,411.577Z" style="fill:white;fill-rule:nonzero;"/>
                </g>
                <g transform="matrix(1.49645,0,0,1.49645,-49.3095,-404.697)">
                    <path d="M454.228,394.585C454.228,399.777 457.886,403.553 463.078,403.553C468.388,403.553 471.928,399.777 471.928,394.585C471.928,389.511 468.388,385.735 463.078,385.735C457.886,385.735 454.228,389.511 454.228,394.585Z" style="fill:white;fill-rule:nonzero;"/>
                </g>
                <g transform="matrix(1.145,0,0,1.145,122.218,-296.189)">
                    <path d="M454.228,394.585C454.228,399.777 457.886,403.553 463.078,403.553C468.388,403.553 471.928,399.777 471.928,394.585C471.928,389.511 468.388,385.735 463.078,385.735C457.886,385.735 454.228,389.511 454.228,394.585Z" style="fill:white;fill-rule:nonzero;"/>
                </g>
                <g transform="matrix(0.950673,0,0,0.950673,237.055,-226.133)">
                    <path d="M454.228,394.585C454.228,399.777 457.886,403.553 463.078,403.553C468.388,403.553 471.928,399.777 471.928,394.585C471.928,389.511 468.388,385.735 463.078,385.735C457.886,385.735 454.228,389.511 454.228,394.585Z" style="fill:white;fill-rule:nonzero;"/>
                </g>
                <g transform="matrix(0.63632,0,0,0.63632,383.366,-120.119)">
                    <path d="M454.228,394.585C454.228,399.777 457.886,403.553 463.078,403.553C468.388,403.553 471.928,399.777 471.928,394.585C471.928,389.511 468.388,385.735 463.078,385.735C457.886,385.735 454.228,389.511 454.228,394.585Z" style="fill:white;fill-rule:nonzero;"/>
                </g>
                <g transform="matrix(0.921593,0,0,0.921593,240.723,-191.5)">
                    <path d="M454.228,394.585C454.228,399.777 457.886,403.553 463.078,403.553C468.388,403.553 471.928,399.777 471.928,394.585C471.928,389.511 468.388,385.735 463.078,385.735C457.886,385.735 454.228,389.511 454.228,394.585Z" style="fill:white;fill-rule:nonzero;"/>
                </g>
            </g>
        </g>
    </g>
</svg>
